<svg id="svg" version="1.1" xmlns="http://www.w3.org/2000/svg" xmlns:xlink="http://www.w3.org/1999/xlink" width="400" height="402.91970802919707" viewBox="0, 0, 400,402.91970802919707"><g id="svgg"><path id="path0" d="M183.942 58.910 L 100.487 90.013 62.409 90.019 L 24.331 90.024 24.331 231.630 L 24.331 373.236 195.377 373.236 L 366.423 373.236 366.423 231.630 L 366.423 90.024 333.930 90.024 L 301.436 90.024 285.046 59.002 C 276.032 41.940,268.373 27.941,268.026 27.893 C 267.680 27.846,229.842 41.803,183.942 58.910 M267.883 69.424 C 272.968 78.430,277.626 86.750,278.233 87.912 L 279.337 90.024 217.649 90.005 L 155.961 89.986 207.056 71.571 C 235.158 61.443,258.260 53.132,258.394 53.102 C 258.528 53.073,262.798 60.418,267.883 69.424 M345.985 231.630 L 345.985 352.798 316.058 352.798 L 286.131 352.798 286.173 262.652 C 286.222 157.886,286.319 152.322,288.169 148.333 C 289.675 145.087,292.802 141.518,295.837 139.581 L 298.001 138.200 195.351 138.221 C 94.787 138.242,92.735 138.261,94.404 139.153 C 97.159 140.625,99.889 143.257,101.561 146.052 C 104.833 151.523,104.623 144.148,104.623 253.630 L 104.623 352.798 74.696 352.798 L 44.769 352.798 44.769 231.630 L 44.769 110.462 195.377 110.462 L 345.985 110.462 345.985 231.630 M265.207 158.542 C 265.207 159.528,262.218 163.479,259.888 165.572 C 256.495 168.620,253.014 170.214,243.177 173.221 C 225.856 178.516,210.625 186.088,198.422 195.470 C 196.607 196.865,195.403 197.482,194.990 197.228 C 194.639 197.013,192.173 195.267,189.509 193.348 C 177.194 184.477,164.478 178.328,148.345 173.443 C 135.491 169.551,129.869 166.203,126.837 160.632 L 125.487 158.151 195.347 158.151 C 233.770 158.151,265.207 158.327,265.207 158.542 M266.403 203.772 C 266.367 231.310,262.276 240.352,247.490 245.569 C 222.964 254.222,200.715 220.640,220.898 205.432 C 229.004 199.324,239.592 195.160,253.070 192.779 C 260.835 191.408,264.284 190.263,265.664 188.600 C 266.013 188.179,266.327 187.835,266.361 187.835 C 266.395 187.836,266.414 195.007,266.403 203.772 M129.967 191.257 C 130.882 191.521,134.338 192.191,137.647 192.745 C 160.545 196.579,175.993 206.062,177.578 217.258 C 180.974 241.232,150.723 256.509,133.486 239.526 C 126.280 232.427,124.943 227.208,124.691 205.199 L 124.497 188.256 126.400 189.516 C 127.447 190.208,129.052 190.992,129.967 191.257 M146.264 208.768 C 137.345 212.250,134.850 224.313,141.643 231.106 C 146.952 236.414,155.954 236.282,161.139 230.820 C 171.154 220.268,159.825 203.473,146.264 208.768 M235.523 208.322 C 229.276 210.131,224.873 217.507,226.238 223.874 C 229.743 240.217,253.041 238.076,253.041 221.411 C 253.041 212.097,244.507 205.720,235.523 208.322 M197.134 252.942 C 198.495 258.805,198.274 265.111,196.571 269.056 L 195.433 271.689 194.602 269.731 C 192.370 264.475,192.246 258.298,194.228 250.955 C 195.443 246.450,195.662 246.600,197.134 252.942 M137.956 265.856 C 148.928 269.442,161.084 269.546,172.124 266.148 C 180.189 263.665,181.444 264.202,183.587 271.052 C 185.161 276.083,188.854 282.221,192.757 286.293 L 195.635 289.294 197.858 286.861 C 202.403 281.887,206.460 274.852,208.042 269.200 C 209.400 264.350,211.271 263.748,218.150 265.945 C 231.827 270.312,247.309 269.244,260.059 263.053 L 263.319 261.470 260.492 264.369 C 255.159 269.837,244.030 279.487,232.073 289.010 C 203.622 311.669,195.614 317.815,195.014 317.452 C 194.461 317.117,185.366 309.979,160.341 290.243 C 149.633 281.798,139.163 272.813,132.360 266.230 L 127.251 261.286 130.657 262.934 C 132.530 263.841,135.815 265.156,137.956 265.856 M161.735 316.969 C 183.320 334.379,195.070 343.554,195.657 343.457 C 196.424 343.331,213.157 329.979,257.056 294.465 L 266.180 287.083 266.180 319.941 L 266.180 352.798 195.698 352.798 L 125.216 352.798 124.896 342.214 C 124.720 336.393,124.576 321.586,124.575 309.309 L 124.574 286.987 126.642 288.660 C 127.780 289.581,143.571 302.320,161.735 316.969 " stroke="none" fill="#000000" fill-rule="evenodd"></path></g></svg>